<svg width="78" height="94" viewBox="0 0 78 94" fill="none" xmlns="http://www.w3.org/2000/svg">
<path d="M22 30.25V38.75H9.25V77H68.75V38.75H56V30.25H68.75C71.0043 30.25 73.1663 31.1455 74.7604 32.7396C76.3545 34.3337 77.25 36.4957 77.25 38.75V77C77.25 79.2543 76.3545 81.4164 74.7604 83.0104C73.1663 84.6045 71.0043 85.5 68.75 85.5H9.25C6.99566 85.5 4.83365 84.6045 3.23959 83.0104C1.64553 81.4164 0.75 79.2543 0.75 77V38.75C0.75 36.4957 1.64553 34.3337 3.23959 32.7396C4.83365 31.1455 6.99566 30.25 9.25 30.25H22ZM42.757 2.49326L57.0327 16.7648C57.8302 17.5622 58.2782 18.6438 58.2782 19.7716C58.2782 20.8994 57.8302 21.981 57.0327 22.7785C56.2353 23.576 55.1537 24.024 54.0259 24.024C52.8981 24.024 51.8165 23.576 51.019 22.7785L43.25 15.0053V55.75C43.25 56.8772 42.8022 57.9582 42.0052 58.7552C41.2082 59.5522 40.1272 60 39 60C37.8728 60 36.7918 59.5522 35.9948 58.7552C35.1978 57.9582 34.75 56.8772 34.75 55.75V15.0053L26.981 22.7785C26.5861 23.1734 26.1174 23.4866 25.6014 23.7003C25.0855 23.914 24.5326 24.024 23.9741 24.024C23.4157 24.024 22.8627 23.914 22.3468 23.7003C21.8309 23.4866 21.3621 23.1734 20.9673 22.7785C20.5724 22.3836 20.2592 21.9149 20.0455 21.3989C19.8318 20.883 19.7218 20.3301 19.7218 19.7716C19.7218 19.2132 19.8318 18.6602 20.0455 18.1443C20.2592 17.6284 20.5724 17.1596 20.9673 16.7648L35.2472 2.49326C36.2434 1.49797 37.594 0.938889 39.0021 0.938889C40.4103 0.938889 41.7608 1.49797 42.757 2.49326Z" fill="black"/>
</svg>